# xmcd
#
# Track frame offsets: 
#        150
#        25415
#        42717
#        61882
#        77305
#        94736
#        110739
#        126091
#        141697
#        157264
#        171207
#        185477
#        196052
#
# Disc length: 3200 seconds
#
# Revision: 9
# Processed by: cddbd v1.5.2PL0 Copyright (c) Steve Scherf et al.
# Submitted via: ExactAudioCopy v1.0b3
#
DISCID=bb0c7e0d
DTITLE=Willie Nelson - Moment of Forever
DYEAR=2008
DGENRE=Country
TTITLE0=Over You Again
TTITLE1=Moment of Forever
TTITLE2=The Bob Song
TTITLE3=Louisiana
TTITLE4=Gravedigger
TTITLE5=Keep Me From Blowing Away
TTITLE6=Takin' On Water
TTITLE7=Always Now
TTITLE8=I'm Alive
TTITLE9=When I Was Young and Grandma Wasn't Old
TTITLE10=Worry B Gone (duet with Kenny Chesney)
TTITLE11=You Don't Think I'm Funny Anymore
TTITLE12=Gotta Serve Somebody
EXTD=
EXTT0=
EXTT1=
EXTT2=
EXTT3=
EXTT4=
EXTT5=
EXTT6=
EXTT7=
EXTT8=
EXTT9=
EXTT10=
EXTT11=
EXTT12=
PLAYORDER=
